# xmcd CD database file
#
# Track frame offsets:
#	185
#	29795
#	57100
#	80407
#	109080
#	135780
#	163292
#	188680
#	214375
#	238545
#
# Disc length: 3506 seconds
#
# Revision: 2
# Processed by: cddbd v1.5PL3 Copyright (c) Steve Scherf et al.
# Submitted via: CDex 1.50
#
DISCID=860db00a
DTITLE=Current - Divine Light - Blue Tones
DYEAR=1995
DGENRE=New Age
TTITLE0=Divine Light
TTITLE1=The Dawn
TTITLE2=New Day
TTITLE3=The Sunset
TTITLE4=Reflections
TTITLE5=Shine
TTITLE6=Moon Dance
TTITLE7=The Dawning
TTITLE8=Shine On Me
TTITLE9=Shimmering Light
EXTD=YEAR: 1995
EXTT0=
EXTT1=
EXTT2=
EXTT3=
EXTT4=
EXTT5=
EXTT6=
EXTT7=
EXTT8=
EXTT9=
PLAYORDER=
